<svg xmlns="http://www.w3.org/2000/svg" width="512" height="512" viewBox="0 0 512 512">
  <defs>
    <linearGradient id="g" x1="0" y1="0" x2="1" y2="1">
      <stop offset="0" stop-color="#2e7d63"/>
      <stop offset="1" stop-color="#1677ff"/>
    </linearGradient>
  </defs>
  <rect x="32" y="32" width="448" height="448" rx="104" fill="url(#g)"/>
  <path d="M166 182c0-32 26-58 58-58h64c32 0 58 26 58 58v16H166v-16zm0 48h180v102c0 32-26 58-58 58h-64c-32 0-58-26-58-58V230zm48 32a16 16 0 1 0 0 32h84a16 16 0 1 0 0-32h-84zm0 60a16 16 0 1 0 0 32h48a16 16 0 1 0 0-32h-48z" fill="#ffffff"/>
</svg>
